<svg width="45" height="35" viewBox="0 0 45 35" fill="none" xmlns="http://www.w3.org/2000/svg">
<path d="M41.7466 21.5498C39.9821 23.9778 37.8913 26.0676 35.5568 27.7306L33.9334 14.8702L33.9165 14.8758C33.877 13.8004 33.5807 12.8126 33.1179 11.96C35.5389 12.5731 37.6458 14.4268 38.8309 17.0642H42.4765C41.2218 11.827 36.6403 8.71832 32.1558 10.1097C32.0166 10.1518 31.8896 10.2139 31.7541 10.2638C30.9359 9.5875 29.9483 9.17952 28.8694 9.17952H27.1821H26.5068H17.0476C17.0476 9.17952 15.57 2.32473 10.9236 0.432261C6.27822 -1.4591 2.22254 3.46886 2.22254 3.46886L3.40576 4.86243V17.0099H6.3196C6.3196 17.0099 7.41723 16.1341 7.65049 13.7594L7.66648 13.7416C7.71727 13.7472 7.76712 13.7594 7.82073 13.7594C8.88074 13.7594 9.74417 12.8015 9.84763 11.5831H9.91065C9.91065 11.5831 11.9112 16.0321 11.0036 18.8104L8.35403 26.9057C6.45598 25.3958 4.73852 23.5931 3.25245 21.5498H0C5.07713 29.7029 13.2619 35 22.5 35C31.7372 35 39.9238 29.7029 45 21.5498H41.7466ZM22.5 32.0111C19.0068 32.0111 15.6838 31.1674 12.659 29.6585C14.3021 25.7173 17.7144 22.9833 21.6921 22.9833C25.8785 22.9833 29.4375 26.0111 30.966 30.2905C28.3192 31.4002 25.4722 32.0111 22.5 32.0111Z" fill="#366B5B"/>
</svg>
