<svg width="40" height="40" viewBox="0 0 40 40" fill="none" xmlns="http://www.w3.org/2000/svg">
<path d="M19.9946 13.0997C16.3222 13.0997 13.3252 16.0448 13.3252 19.6537C13.3252 23.2626 16.3222 26.2077 19.9946 26.2077C23.667 26.2077 26.664 23.2626 26.664 19.6537C26.664 16.0448 23.667 13.0997 19.9946 13.0997ZM39.9978 19.6537C39.9978 16.9397 40.0228 14.2502 39.8677 11.5411C39.7126 8.39435 38.9821 5.60164 36.6406 3.3006C34.294 0.994645 31.4572 0.281717 28.2551 0.129298C25.4932 -0.0231213 22.7564 0.00146246 19.9996 0.00146246C17.2378 0.00146246 14.501 -0.0231213 11.7442 0.129298C8.5421 0.281717 5.70023 0.999562 3.35869 3.3006C1.01215 5.60655 0.286675 8.39435 0.131574 11.5411C-0.0235283 14.2551 0.0014882 16.9446 0.0014882 19.6537C0.0014882 22.3628 -0.0235283 25.0572 0.131574 27.7663C0.286675 30.913 1.01716 33.7058 3.35869 36.0068C5.70524 38.3127 8.5421 39.0257 11.7442 39.1781C14.506 39.3305 17.2428 39.3059 19.9996 39.3059C22.7614 39.3059 25.4982 39.3305 28.2551 39.1781C31.4572 39.0257 34.299 38.3078 36.6406 36.0068C38.9871 33.7008 39.7126 30.913 39.8677 27.7663C40.0278 25.0572 39.9978 22.3677 39.9978 19.6537V19.6537ZM19.9946 29.7379C14.3159 29.7379 9.73288 25.2342 9.73288 19.6537C9.73288 14.0732 14.3159 9.56945 19.9946 9.56945C25.6734 9.56945 30.2564 14.0732 30.2564 19.6537C30.2564 25.2342 25.6734 29.7379 19.9946 29.7379ZM30.6766 11.5116C29.3508 11.5116 28.2801 10.4594 28.2801 9.15644C28.2801 7.85351 29.3508 6.80132 30.6766 6.80132C32.0025 6.80132 33.0732 7.85351 33.0732 9.15644C33.0736 9.46583 33.0119 9.77226 32.8916 10.0582C32.7713 10.3441 32.5948 10.6039 32.3722 10.8226C32.1495 11.0414 31.8852 11.2149 31.5942 11.3331C31.3033 11.4513 30.9915 11.512 30.6766 11.5116V11.5116Z" fill="#366B5B"/>
</svg>
