<svg width="54" height="52" viewBox="0 0 54 52" fill="none" xmlns="http://www.w3.org/2000/svg">
<path d="M37.5454 46.7247C33.5863 42.7163 33.6354 41.9845 33.6354 41.9845C37.7183 38.7643 38.9818 31.5288 36.6254 25.1517C33.4969 16.6799 22.2021 11.8637 19.4749 0.6184C18.8362 -2.00739 7.21057 14.365 11.3835 27.5023C14.4355 37.1057 23.2119 42.0073 25.9009 43.012C28.338 43.9216 30.6288 43.8329 30.6288 43.8329C33.4814 47.441 35.2464 48.7956 35.2464 48.7956C36.3807 49.8935 38.877 48.0664 37.5454 46.7247ZM29.3609 40.5418C19.9092 28.79 18.345 13.0969 18.345 13.0969C18.345 13.0969 20.6176 25.7586 31.3724 39.721C30.9915 40.2328 30.0223 40.6184 29.3609 40.5418Z" fill="#366B5B"/>
</svg>
