<svg width="21" height="22" viewBox="0 0 21 22" fill="none" xmlns="http://www.w3.org/2000/svg">
<path d="M6.44309 1.458C6.55309 2.392 6.04209 3.183 6.04209 3.183C5.84909 3.506 3.41909 7.082 4.74009 11.111C5.50909 13.222 6.84309 14.341 7.22909 14.688C7.77609 15.134 8.25209 14.931 8.25209 14.931C8.25209 14.931 11.4851 13.851 11.9041 10.062C12.3611 5.933 10.0821 1.828 5.49809 0C5.49809 0 6.35309 0.69 6.44309 1.458Z" fill="#366B5B"/>
<path d="M9.79286 15.2432C6.57886 16.4852 6.36786 19.3892 6.36786 19.3892C6.36786 19.3892 6.29886 19.8282 6.81086 20.1702C7.20186 20.4032 8.47986 21.2312 10.4979 21.3582C14.3139 21.4842 16.8859 18.6462 17.1249 18.4122C17.1249 18.4122 17.6999 17.8062 18.5399 17.6752C19.2299 17.5672 20.0259 18.1032 20.0259 18.1032C18.1769 15.7722 15.6049 14.6372 13.0239 14.6372C11.9309 14.6372 10.8349 14.8412 9.79286 15.2432Z" fill="#366B5B"/>
<path d="M0.879 11.0192C1.13 11.5872 0.96 12.1852 0.96 12.1852C0.9 12.4262 0.061 15.1542 1.676 17.4402C2.571 18.6242 3.629 19.0712 3.941 19.2142C4.372 19.3902 4.633 19.1692 4.633 19.1692C4.633 19.1692 6.464 17.8602 5.993 15.3892C5.48 12.6942 3.246 10.5472 0 10.2822C0 10.2822 0.673 10.5522 0.879 11.0192Z" fill="#366B5B"/>
</svg>
