<svg width="60" height="59" viewBox="0 0 60 59" fill="none" xmlns="http://www.w3.org/2000/svg">
<path d="M59.3303 28.5509L51.0121 25.6901C47.6925 24.5479 44.0434 24.7768 40.8989 26.324C37.7538 27.8713 35.3805 30.604 34.3213 33.8996L32.1446 40.6729L30.0015 42.252V28.1074C29.9995 26.2219 30.9596 24.4605 32.5567 23.4172L32.5459 23.4014C32.6034 23.3713 32.6579 23.3348 32.7081 23.2941C36.7252 19.3463 38.8238 13.893 38.4709 8.32098L38.0015 0.921004C37.9719 0.455315 37.6135 0.074475 37.1433 0.00861737C36.6747 -0.0523071 36.2254 0.214823 36.0625 0.651407L32.8286 9.54613C31.6195 12.8691 31.0013 16.3712 31.0018 19.9003V22.1143C29.1115 23.5472 28.0033 25.7614 28.0018 28.1081V30.055L26.9852 29.055C26.814 21.749 21.9932 15.3337 14.9355 13.0257L8.31928 10.8645C7.97716 10.7518 7.6004 10.8295 7.33258 11.066C7.06501 11.3041 6.94754 11.6644 7.02636 12.0105L8.12651 16.8857C9.88806 24.8406 17.0723 30.5014 25.3574 30.4607H25.5884L28.0018 32.8328V54.4188L26.002 53.4359V51.4148C26.002 46.472 23.5836 41.8297 19.5028 38.9401C15.4212 36.05 10.1755 35.2634 5.40337 36.827L0.687249 38.3718C0.277109 38.5045 0 38.8809 0 39.3054C0 39.7296 0.277109 40.106 0.687249 40.239L1.75879 40.59C6.89082 42.2668 11.6807 44.8261 15.9026 48.1483L24.3765 54.8098C24.4345 54.8493 24.496 54.8823 24.561 54.9085L24.555 54.9218L28.0018 56.6171V58.9569H30.0015V44.7087L33.6017 42.0551L33.5909 42.0416C33.6318 42.0184 33.6709 41.992 33.7083 41.9641C40.0414 35.7621 48.2879 31.7989 57.1572 30.6943L59.1248 30.4531C59.5854 30.3956 59.9453 30.0348 59.9945 29.5819C60.0434 29.1283 59.7686 28.7013 59.3303 28.5509Z" fill="#366B5B"/>
</svg>
