<svg width="35" height="35" viewBox="0 0 35 35" fill="none" xmlns="http://www.w3.org/2000/svg">
<path d="M35 12.355C35 5.53328 29.56 0 22.8532 0C16.1465 0 10.7065 5.53328 10.7065 12.355C10.7065 18.4708 15.0793 23.5363 20.823 24.5247V31.47H6.941V26.175H8.67625V19.115C8.67625 18.1442 7.89539 17.35 6.941 17.35H1.73525C0.780863 17.35 0 18.1442 0 19.115V26.175H1.73525V35H29.4993V31.47H24.2935V24.6218C30.3235 23.8981 35 18.6826 35 12.355ZM4.33813 15.585C5.77838 15.585 6.941 14.4024 6.941 12.9375C6.941 11.4725 5.77838 10.29 4.33813 10.29C2.89787 10.29 1.73525 11.4725 1.73525 12.9375C1.73525 14.4024 2.89787 15.585 4.33813 15.585Z" fill="#366B5B"/>
</svg>
