<svg width="35" height="32" viewBox="0 0 35 32" fill="none" xmlns="http://www.w3.org/2000/svg">
<path d="M33.1576 4.84629H29.7367L27.4019 0.96432C27.4019 0.96432 27.3887 0.978206 27.3872 0.982064C27.0926 0.406557 26.5342 0 25.8673 0H18.8122C18.124 0 17.5429 0.428158 17.2549 1.03607L17.2446 1.03298L14.9098 4.84629H10.4218V3.95448V3.71302C10.4218 2.6947 9.63766 1.87078 8.67177 1.87078H6.22993C5.26403 1.87078 4.47989 2.6947 4.47989 3.71302V3.95371V4.84552H1.84238C0.825918 4.84552 0 5.7134 0 6.78496V30.0606C0 31.1337 0.825185 32 1.84238 32H33.1576C34.177 32 35 31.1337 35 30.0606V6.78573C35 5.71418 34.177 4.84629 33.1576 4.84629ZM10.446 10.4771C10.446 11.4955 9.66184 12.3194 8.69595 12.3194H6.20721C5.24205 12.3194 4.45717 11.4955 4.45717 10.4771V10.4486C4.45717 9.43028 5.24132 8.60636 6.20721 8.60636H8.69595C9.66111 8.60636 10.446 9.43028 10.446 10.4486V10.4771ZM22.3225 27.6328C17.4901 27.6328 13.573 23.5055 13.573 18.4224C13.573 13.3346 17.4901 9.21196 22.3225 9.21196C27.1563 9.21196 31.0719 13.3354 31.0719 18.4224C31.0727 23.5063 27.1563 27.6328 22.3225 27.6328Z" fill="#366B5B"/>
</svg>
