<svg width="40" height="40" viewBox="0 0 40 40" fill="none" xmlns="http://www.w3.org/2000/svg">
<path d="M20 0C8.95161 0 0 8.79661 0 19.6537C0 30.5108 8.95161 39.3074 20 39.3074C31.0484 39.3074 40 30.5108 40 19.6537C40 8.79661 31.0484 0 20 0ZM29.8226 13.4644L26.5403 28.6643C26.2984 29.7421 25.6452 30.0036 24.7339 29.4964L19.7339 25.8747L17.3226 28.1571C17.0565 28.4186 16.8306 28.6405 16.3145 28.6405L16.6694 23.6399L25.9355 15.4139C26.3387 15.0652 25.8468 14.8671 25.3145 15.2158L13.8629 22.3006L8.92742 20.787C7.85484 20.4541 7.83064 19.7329 9.15323 19.2258L28.4355 11.919C29.3306 11.602 30.1129 12.133 29.8226 13.4644V13.4644Z" fill="#366B5B"/>
</svg>
