<svg width="36" height="36" viewBox="0 0 36 36" fill="none" xmlns="http://www.w3.org/2000/svg">
<path d="M24.77 19.7149C24.7701 18.8218 24.5943 17.9373 24.2525 17.1121C23.9108 16.287 23.4099 15.5372 22.7783 14.9056C22.1467 14.274 21.3969 13.7731 20.5718 13.4314C19.7466 13.0896 18.8621 12.9138 17.969 12.9139C16.8879 12.9138 15.8224 13.172 14.8612 13.6668C13.9 14.1617 13.0709 14.8789 12.443 15.7589C11.8149 14.879 10.9858 14.1618 10.0247 13.6669C9.06349 13.1721 7.99804 12.9139 6.91697 12.9139C6.02381 12.9138 5.13938 13.0896 4.31418 13.4314C3.48899 13.7731 2.7392 14.274 2.10764 14.9056C1.47608 15.5372 0.97513 16.287 0.633395 17.1121C0.291659 17.9373 0.115836 18.8218 0.115967 19.7149C0.115967 20.2459 0.182967 20.7639 0.298967 21.2599C1.24397 27.1269 7.76697 33.3189 12.443 35.0179C17.118 33.3189 23.643 27.1269 24.585 21.2619C24.7061 20.7551 24.7681 20.236 24.77 19.7149V19.7149ZM35.885 5.69293C35.8851 5.07424 35.7633 4.46158 35.5266 3.88996C35.2899 3.31833 34.9429 2.79894 34.5054 2.36146C34.068 1.92398 33.5486 1.57697 32.9769 1.34027C32.4053 1.10357 31.7927 0.981802 31.174 0.981934C29.595 0.981934 28.201 1.76193 27.346 2.95393C26.911 2.34442 26.3369 1.84752 25.6712 1.50454C25.0056 1.16155 24.2678 0.982387 23.519 0.981934C22.9003 0.981802 22.2876 1.10357 21.716 1.34027C21.1444 1.57697 20.625 1.92398 20.1875 2.36146C19.75 2.79894 19.403 3.31833 19.1663 3.88996C18.9296 4.46158 18.8078 5.07424 18.808 5.69293C18.808 6.06193 18.855 6.41993 18.935 6.76293C19.589 10.8269 24.108 15.1159 27.346 16.2919C30.584 15.1149 35.104 10.8269 35.758 6.76393C35.838 6.41993 35.885 6.06193 35.885 5.69293V5.69293Z" fill="#366B5B"/>
</svg>
