<svg width="35" height="35" viewBox="0 0 35 35" fill="none" xmlns="http://www.w3.org/2000/svg">
<path fill-rule="evenodd" clip-rule="evenodd" d="M0 17.5C0 7.8349 7.8349 0 17.5 0C27.1651 0 35 7.8349 35 17.5C35 27.1651 27.1651 35 17.5 35C7.8349 35 0 27.1651 0 17.5ZM26.1129 26.8421V29.2491C29.7274 26.5949 32.0833 22.3278 32.0833 17.5C32.0833 9.44563 25.5544 2.91667 17.5 2.91667C9.44563 2.91667 2.91667 9.44563 2.91667 17.5C2.91667 22.3278 5.2726 26.5949 8.88708 29.2491V26.8421C8.88708 22.0857 12.7429 18.2292 17.5 18.2292C22.2564 18.2292 26.1129 22.0857 26.1129 26.8421ZM22 12.5C22 14.9853 19.9853 17 17.5 17C15.0147 17 13 14.9853 13 12.5C13 10.0147 15.0147 8 17.5 8C19.9853 8 22 10.0147 22 12.5Z" fill="#366B5B"/>
</svg>
