<svg width="0" height="0" class="hidden">
  <symbol viewBox="0 0 45 35" fill="none" xmlns="http://www.w3.org/2000/svg" id="horse">
    <path d="M41.747 21.55c-1.765 2.428-3.856 4.518-6.19 6.18l-1.624-12.86-.017.006a6.605 6.605 0 0 0-.798-2.916c2.42.613 4.528 2.467 5.713 5.104h3.645c-1.254-5.237-5.836-8.346-10.32-6.954-.14.042-.266.104-.402.154-.818-.676-1.806-1.084-2.885-1.084H17.047S15.57 2.325 10.925.432C6.278-1.459 2.223 3.47 2.223 3.47l1.183 1.393V17.01H6.32s1.097-.876 1.33-3.25l.016-.018c.051.005.101.017.155.017 1.06 0 1.923-.957 2.027-2.176h.063s2 4.45 1.093 7.227l-2.65 8.096a27.497 27.497 0 0 1-5.102-5.356H0C5.077 29.703 13.262 35 22.5 35c9.237 0 17.424-5.297 22.5-13.45h-3.253zM22.5 32.01c-3.493 0-6.816-.844-9.841-2.353 1.643-3.94 5.055-6.675 9.033-6.675 4.186 0 7.745 3.028 9.274 7.308a21.805 21.805 0 0 1-8.466 1.72z"
      fill="#366B5B"></path>
  </symbol>
  <symbol viewBox="0 0 40 40" fill="none" xmlns="http://www.w3.org/2000/svg" id="instagram">
    <path d="M19.995 13.1c-3.673 0-6.67 2.945-6.67 6.554 0 3.609 2.997 6.554 6.67 6.554 3.672 0 6.669-2.945 6.669-6.554 0-3.61-2.997-6.554-6.67-6.554zm20.003 6.554c0-2.714.025-5.404-.13-8.113-.155-3.147-.886-5.94-3.227-8.24C34.294.995 31.457.28 28.255.129 25.493-.023 22.756.001 20 .001c-2.762 0-5.499-.024-8.256.128C8.542.282 5.7 1 3.36 3.301 1.012 5.607.287 8.394.132 11.54c-.156 2.714-.13 5.404-.13 8.113 0 2.709-.026 5.403.13 8.112.155 3.147.885 5.94 3.227 8.24 2.346 2.307 5.183 3.02 8.385 3.172 2.762.153 5.499.128 8.256.128 2.761 0 5.498.025 8.255-.128 3.202-.152 6.044-.87 8.386-3.171 2.346-2.306 3.072-5.094 3.227-8.24.16-2.71.13-5.4.13-8.113zM19.995 29.738c-5.68 0-10.262-4.504-10.262-10.084S14.316 9.569 19.995 9.569c5.678 0 10.261 4.504 10.261 10.085 0 5.58-4.583 10.084-10.261 10.084zm10.682-18.226c-1.326 0-2.397-1.053-2.397-2.356 0-1.302 1.07-2.355 2.397-2.355 1.325 0 2.396 1.053 2.396 2.355a2.317 2.317 0 0 1-.7 1.667 2.43 2.43 0 0 1-1.696.689z"
      fill="#366B5B"></path>
  </symbol>
  <symbol viewBox="0 0 54 52" fill="none" xmlns="http://www.w3.org/2000/svg" id="leaf-1">
    <path d="M37.545 46.725c-3.959-4.009-3.91-4.74-3.91-4.74 4.083-3.22 5.347-10.456 2.99-16.833C33.497 16.68 22.202 11.864 19.475.618c-.639-2.625-12.264 13.747-8.092 26.884 3.053 9.604 11.829 14.505 14.518 15.51 2.437.91 4.728.82 4.728.82 2.852 3.609 4.617 4.964 4.617 4.964 1.135 1.098 3.631-.73 2.3-2.071zm-8.184-6.183C19.909 28.79 18.345 13.097 18.345 13.097s2.273 12.662 13.027 26.624c-.38.512-1.35.897-2.011.82z"
      fill="#366B5B"></path>
  </symbol>
  <symbol viewBox="0 0 51 40" fill="none" xmlns="http://www.w3.org/2000/svg" id="leaf-2">
    <path d="M11.699 10.847c-7.844 6.51-5.62 13.507-4.68 16.068C15.734 12.625 33.054 9.05 33.054 9.05s-22.659 12.937-26.4 28.848c-.295 1.256 3.272 1.94 3.687.438 1.241-4.473 3.582-8.167 3.582-8.167 4.846.335 13.038.124 17.769-4.495 6.283-6.137 3.202-15.647 12.538-22.885 2.181-1.69-21.899-.77-32.532 8.058z"
      fill="#366B5B"></path>
  </symbol>
  <symbol viewBox="0 0 21 22" fill="none" xmlns="http://www.w3.org/2000/svg" id="leaves">
    <path d="M6.443 1.458c.11.934-.4 1.725-.4 1.725-.194.323-2.624 3.899-1.303 7.928.77 2.111 2.103 3.23 2.49 3.577.546.446 1.022.243 1.022.243s3.233-1.08 3.652-4.869C12.361 5.933 10.082 1.828 5.498 0c0 0 .855.69.945 1.458zm3.35 13.785c-3.214 1.242-3.425 4.146-3.425 4.146s-.07.44.443.781c.39.233 1.669 1.061 3.687 1.188 3.816.126 6.388-2.712 6.627-2.946 0 0 .575-.606 1.415-.737.69-.108 1.486.428 1.486.428-1.85-2.33-4.421-3.466-7.002-3.466a8.981 8.981 0 0 0-3.231.606zM.879 11.02c.251.567.081 1.165.081 1.165-.06.241-.899 2.97.716 5.255.895 1.184 1.953 1.631 2.265 1.774.431.176.692-.045.692-.045s1.831-1.309 1.36-3.78C5.48 12.694 3.246 10.547 0 10.282c0 0 .673.27.879.737z"
      fill="#366B5B"></path>
  </symbol>
  <symbol viewBox="0 0 60 59" fill="none" xmlns="http://www.w3.org/2000/svg" id="leaves1">
    <path d="M59.33 28.55l-8.318-2.86a13.205 13.205 0 0 0-10.113.634c-3.145 1.547-5.519 4.28-6.578 7.576l-2.176 6.773L30 42.252V28.107a5.6 5.6 0 0 1 2.556-4.69l-.011-.016a.982.982 0 0 0 .162-.107c4.017-3.948 6.116-9.401 5.763-14.973L38 .921a.99.99 0 0 0-.858-.912 1.012 1.012 0 0 0-1.08.642l-3.234 8.895A30.261 30.261 0 0 0 31.002 19.9v2.214a7.531 7.531 0 0 0-3 5.994v1.947l-1.017-1c-.171-7.306-4.992-13.721-12.05-16.03l-6.616-2.16a1.014 1.014 0 0 0-.986.201.974.974 0 0 0-.307.944l1.1 4.876C9.889 24.84 17.073 30.5 25.358 30.46h.231l2.414 2.372v21.586l-2-.983v-2.021c0-4.943-2.418-9.585-6.5-12.475a15.878 15.878 0 0 0-14.099-2.113L.687 38.372a.984.984 0 0 0-.687.933c0 .425.277.801.687.934l1.072.351a45.947 45.947 0 0 1 14.144 7.558l8.473 6.662c.058.04.12.072.185.098l-.006.014 3.447 1.695v2.34h2V44.709l3.6-2.654-.011-.013c.04-.024.08-.05.117-.078 6.333-6.202 14.58-10.165 23.45-11.27l1.967-.24a.992.992 0 0 0 .87-.872.981.981 0 0 0-.665-1.031z"
      fill="#366B5B"></path>
  </symbol>
  <symbol viewBox="0 0 35 32" fill="none" xmlns="http://www.w3.org/2000/svg" id="photo">
    <path d="M33.158 4.846h-3.421L27.402.964s-.013.014-.015.018C27.093.407 26.534 0 25.867 0h-7.055c-.688 0-1.27.428-1.557 1.036l-.01-.003-2.335 3.813h-4.488V3.713c0-1.018-.784-1.842-1.75-1.842H6.23c-.966 0-1.75.824-1.75 1.842v1.133H1.842C.826 4.846 0 5.713 0 6.785v23.276C0 31.134.825 32 1.842 32h31.316C34.177 32 35 31.134 35 30.06V6.787c0-1.072-.823-1.94-1.842-1.94zm-22.712 5.631c0 1.018-.784 1.842-1.75 1.842H6.207c-.965 0-1.75-.824-1.75-1.842v-.028c0-1.019.784-1.843 1.75-1.843h2.489c.965 0 1.75.824 1.75 1.843v.028zm11.877 17.156c-4.833 0-8.75-4.127-8.75-9.21 0-5.088 3.917-9.211 8.75-9.211s8.749 4.123 8.749 9.21c0 5.084-3.916 9.21-8.75 9.21z"
      fill="#366B5B"></path>
  </symbol>
  <symbol viewBox="0 0 35 35" fill="none" xmlns="http://www.w3.org/2000/svg" id="photo-walk">
    <path d="M35 12.355C35 5.533 29.56 0 22.853 0S10.706 5.533 10.706 12.355c0 6.116 4.373 11.181 10.117 12.17v6.945H6.941v-5.295h1.735v-7.06c0-.97-.78-1.765-1.735-1.765H1.735C.781 17.35 0 18.144 0 19.115v7.06h1.735V35H29.5v-3.53h-5.205v-6.848C30.324 23.898 35 18.682 35 12.355zm-30.662 3.23c1.44 0 2.603-1.183 2.603-2.648 0-1.464-1.163-2.647-2.603-2.647-1.44 0-2.603 1.183-2.603 2.648 0 1.464 1.163 2.647 2.603 2.647z"
      fill="#366B5B"></path>
  </symbol>
  <symbol viewBox="0 0 40 40" fill="none" xmlns="http://www.w3.org/2000/svg" id="telegram">
    <path d="M20 0C8.952 0 0 8.797 0 19.654s8.952 19.653 20 19.653 20-8.796 20-19.653S31.048 0 20 0zm9.823 13.464l-3.283 15.2c-.242 1.078-.895 1.34-1.806.832l-5-3.621-2.411 2.282c-.267.262-.492.483-1.009.483l.355-5 9.267-8.226c.403-.349-.09-.547-.622-.198L13.863 22.3l-4.936-1.514c-1.072-.333-1.096-1.054.226-1.561l19.282-7.307c.896-.317 1.678.214 1.388 1.545z"
      fill="#366B5B"></path>
  </symbol>
  <symbol viewBox="0 0 36 36" fill="none" xmlns="http://www.w3.org/2000/svg" id="twemoji-two-hearts">
    <path d="M24.77 19.715a6.8 6.8 0 0 0-9.909-6.048 6.787 6.787 0 0 0-2.418 2.092 6.79 6.79 0 0 0-10.335-.853 6.801 6.801 0 0 0-1.992 4.809c0 .53.067 1.049.183 1.545.945 5.867 7.468 12.059 12.144 13.758 4.675-1.7 11.2-7.891 12.142-13.756a6.762 6.762 0 0 0 .185-1.547zM35.885 5.693A4.71 4.71 0 0 0 31.174.982c-1.579 0-2.973.78-3.828 1.972a4.705 4.705 0 0 0-8.18.936 4.709 4.709 0 0 0-.358 1.803c0 .369.047.727.127 1.07.654 4.064 5.173 8.353 8.411 9.529 3.238-1.177 7.758-5.465 8.412-9.528.08-.344.127-.702.127-1.071z"
      fill="#366B5B"></path>
  </symbol>
  <symbol viewBox="0 0 35 35" fill="none" xmlns="http://www.w3.org/2000/svg" id="union">
    <path fill-rule="evenodd" clip-rule="evenodd" d="M0 17.5C0 7.835 7.835 0 17.5 0S35 7.835 35 17.5 27.165 35 17.5 35 0 27.165 0 17.5zm26.113 9.342v2.407c3.614-2.654 5.97-6.921 5.97-11.749 0-8.054-6.529-14.583-14.583-14.583S2.917 9.446 2.917 17.5c0 4.828 2.356 9.095 5.97 11.75v-2.408a8.613 8.613 0 0 1 17.226 0zM22 12.5a4.5 4.5 0 1 1-9 0 4.5 4.5 0 0 1 9 0z"
      fill="#366B5B"></path>
  </symbol>
</svg>